<svg xmlns="http://www.w3.org/2000/svg" xmlns:xlink="http://www.w3.org/1999/xlink" width="500" zoomAndPan="magnify" viewBox="0 0 375 374.999991" height="500" preserveAspectRatio="xMidYMid meet" version="1.0"><defs><g/><clipPath id="7bdfa856f1"><path d="M 40 81 L 108 81 L 108 224 L 40 224 Z M 40 81 " clip-rule="nonzero"/></clipPath><clipPath id="d5b80c1bcb"><path d="M 0 188.1875 L 91.496094 69.324219 L 138.449219 105.464844 L 46.953125 224.328125 Z M 0 188.1875 " clip-rule="nonzero"/></clipPath><clipPath id="273369e594"><path d="M 0 188.1875 L 91.496094 69.324219 L 138.449219 105.464844 L 46.953125 224.328125 Z M 0 188.1875 " clip-rule="nonzero"/></clipPath><clipPath id="1d90428767"><path d="M 0 188.1875 L 91.496094 69.324219 L 138.449219 105.464844 L 46.953125 224.328125 Z M 0 188.1875 " clip-rule="nonzero"/></clipPath><clipPath id="bb0d6e3138"><path d="M 46.480469 142.609375 L 344.230469 142.609375 L 344.230469 305.359375 L 46.480469 305.359375 Z M 46.480469 142.609375 " clip-rule="nonzero"/></clipPath></defs><g clip-path="url(#7bdfa856f1)"><g clip-path="url(#d5b80c1bcb)"><g clip-path="url(#273369e594)"><g clip-path="url(#1d90428767)"><path fill="#000000" d="M 51.808594 193.105469 C 50.582031 191.886719 48.429688 190.257812 46.128906 190.761719 C 43.421875 191.351562 44.382812 194.835938 44.382812 194.835938 C 44.382812 194.835938 41.574219 188.835938 48.832031 189.082031 C 47.414062 188.171875 44.175781 187.695312 40.546875 186.472656 C 42.59375 184.304688 45.121094 184.050781 47.855469 184.621094 C 47.855469 184.621094 44.3125 181.632812 43.074219 179.492188 C 41.898438 177.457031 41.234375 173.828125 41.628906 171.066406 L 49.683594 177.96875 C 49.683594 177.96875 45.011719 170.996094 43.878906 168.800781 C 43.027344 167.144531 43.023438 161.613281 43.390625 159.585938 L 48.324219 167.648438 L 44.863281 154.535156 C 44.863281 154.535156 45.027344 148.722656 47.464844 144.007812 C 49.679688 147.164062 51.347656 150.363281 53.851562 152.015625 C 51.570312 148.308594 50.335938 138.113281 50.335938 138.113281 C 49.773438 137.683594 56.070312 120.007812 56.070312 120.007812 C 56.945312 123.496094 58.46875 126.488281 61.046875 128.667969 C 59.792969 129.097656 58.59375 115.449219 58.59375 115.449219 C 58.59375 115.449219 60.070312 110.164062 62.386719 108.125 L 65.007812 116.484375 L 66.316406 105.160156 C 87.066406 76.929688 107.949219 81.984375 107.949219 81.984375 C 100.351562 85.441406 98.511719 89.359375 94.65625 101.011719 L 83.679688 110.65625 L 95.054688 107.679688 C 93.28125 110.878906 90.417969 117.3125 90.417969 117.3125 L 80.644531 123.929688 L 94.074219 121.414062 C 93.320312 124.316406 88.726562 132.65625 86.851562 134.242188 C 84.1875 136.484375 72.335938 142.636719 72.335938 142.636719 L 89.820312 136.855469 C 89.089844 140.652344 86.472656 148.265625 84.746094 150.289062 C 81.320312 154.304688 71.332031 160.535156 71.332031 160.535156 C 75.664062 160.128906 79.679688 158.824219 83.304688 156.707031 C 82.800781 160.992188 79.824219 168.050781 78.984375 170.210938 L 71.84375 174.21875 L 79.957031 175.023438 C 79.75 176.707031 72.878906 187.300781 70.589844 189.289062 C 70.589844 189.289062 58.757812 190.742188 57.367188 191.882812 C 58.660156 191.597656 59.867188 193.222656 60.917969 194.742188 C 62.21875 196.609375 61.273438 198.886719 61.273438 198.886719 C 61.273438 198.886719 61.71875 196 58.871094 195.253906 C 56.804688 194.714844 55.035156 194.585938 53.585938 194.480469 L 51.613281 205.183594 L 52.265625 205.308594 C 52.4375 205.339844 52.589844 205.441406 52.6875 205.585938 C 52.789062 205.730469 52.824219 205.910156 52.792969 206.082031 C 52.761719 206.253906 52.660156 206.40625 52.515625 206.503906 C 52.371094 206.601562 52.191406 206.640625 52.019531 206.605469 L 51.371094 206.480469 L 49.667969 215.652344 C 49.625 215.890625 48.601562 217.433594 48.128906 219.042969 C 47.441406 221.382812 47.203125 223.980469 46.855469 223.914062 C 46.269531 223.800781 47.023438 218.863281 47.546875 215.246094 C 47.777344 213.679688 47.847656 213.691406 47.847656 213.691406 L 49.304688 206.082031 L 48.863281 205.996094 C 48.691406 205.964844 48.539062 205.863281 48.441406 205.71875 C 48.339844 205.574219 48.304688 205.394531 48.335938 205.222656 C 48.367188 205.050781 48.46875 204.898438 48.613281 204.800781 C 48.757812 204.703125 48.9375 204.664062 49.109375 204.699219 L 49.554688 204.785156 Z M 51.808594 193.105469 " fill-opacity="1" fill-rule="evenodd"/></g></g></g></g><g clip-path="url(#bb0d6e3138)"><path fill="#000000" d="M 344.234375 220.703125 C 344.234375 220.699219 344.234375 220.691406 344.234375 220.6875 C 344.234375 220.683594 344.234375 220.675781 344.234375 220.671875 L 344.234375 218.453125 L 303.410156 218.453125 C 302.371094 218.453125 301.464844 219.167969 301.230469 220.179688 L 299.867188 226.011719 L 292.929688 190.808594 C 292.722656 189.761719 291.800781 189.007812 290.734375 189.007812 C 290.71875 189.007812 290.710938 189.007812 290.691406 189.007812 C 289.609375 189.023438 288.699219 189.820312 288.527344 190.882812 L 273.46875 284.832031 L 260.90625 144.898438 C 260.804688 143.746094 259.839844 142.867188 258.683594 142.863281 C 258.679688 142.863281 258.679688 142.863281 258.679688 142.863281 C 257.523438 142.863281 256.558594 143.738281 256.453125 144.890625 L 250.425781 210.058594 L 245.738281 201.34375 C 245.3125 200.554688 244.453125 200.097656 243.570312 200.175781 C 242.679688 200.257812 241.921875 200.855469 241.640625 201.707031 L 231.710938 232.0625 L 218.28125 195.671875 C 217.953125 194.789062 217.097656 194.195312 216.152344 194.214844 C 215.203125 194.226562 214.367188 194.835938 214.0625 195.734375 L 206.375 218.453125 L 46.480469 218.453125 L 46.480469 222.917969 L 207.980469 222.917969 C 208.9375 222.917969 209.792969 222.308594 210.097656 221.398438 L 216.273438 203.15625 L 229.738281 239.640625 C 230.0625 240.515625 230.902344 241.097656 231.835938 241.097656 C 231.851562 241.097656 231.863281 241.097656 231.878906 241.097656 C 232.828125 241.078125 233.667969 240.464844 233.964844 239.558594 L 244.269531 208.054688 L 249.996094 218.710938 C 250.464844 219.578125 251.449219 220.039062 252.414062 219.84375 C 253.378906 219.644531 254.105469 218.839844 254.195312 217.859375 L 258.644531 169.742188 L 270.617188 303.066406 C 270.714844 304.191406 271.636719 305.058594 272.765625 305.097656 C 272.789062 305.097656 272.820312 305.097656 272.84375 305.097656 C 273.9375 305.097656 274.878906 304.304688 275.046875 303.222656 L 290.960938 203.953125 L 297.488281 237.066406 C 297.691406 238.097656 298.589844 238.847656 299.644531 238.867188 C 300.6875 238.878906 301.625 238.167969 301.859375 237.144531 L 305.183594 222.921875 L 341.996094 222.921875 C 342.007812 222.921875 342.015625 222.917969 342.023438 222.917969 L 344.234375 222.917969 Z M 344.234375 220.703125 " fill-opacity="1" fill-rule="nonzero"/></g><g fill="#000000" fill-opacity="1"><g transform="translate(111.670668, 173.032411)"><g><path d="M 18.589844 -21.386719 C 14.539062 -22.535156 11.644531 -23.984375 11.644531 -27.734375 C 11.644531 -30.480469 13.140625 -34.878906 16.589844 -34.878906 L 18.589844 -34.878906 L 28.183594 -23.835938 C 28.683594 -23.1875 29.433594 -22.535156 29.78125 -22.535156 L 30.132812 -22.535156 C 30.679688 -22.535156 30.832031 -22.886719 30.832031 -23.433594 L 30.832031 -33.828125 C 30.832031 -34.628906 30.53125 -35.078125 29.730469 -35.128906 L 18.589844 -35.578125 L 16.339844 -35.578125 C 6.597656 -35.578125 3.246094 -30.332031 3.246094 -25.933594 C 3.246094 -20.335938 6.347656 -16.339844 15.441406 -13.589844 C 19.886719 -12.242188 23.085938 -11.34375 23.085938 -6.945312 C 23.085938 -4.199219 21.4375 -0.199219 18.140625 -0.199219 L 15.691406 -0.199219 L 6.097656 -11.242188 C 5.597656 -11.894531 4.847656 -12.542969 4.496094 -12.542969 L 4.148438 -12.542969 C 3.597656 -12.542969 3.449219 -12.191406 3.449219 -11.644531 L 3.449219 -1.25 C 3.449219 -0.449219 3.746094 0 4.546875 0.0507812 L 15.691406 0.5 L 18.386719 0.5 C 28.132812 0.5 32.179688 -4.398438 32.179688 -10.394531 C 32.179688 -16.789062 25.484375 -19.4375 18.589844 -21.386719 Z M 18.589844 -21.386719 "/></g></g></g><g fill="#000000" fill-opacity="1"><g transform="translate(147.098706, 173.032411)"><g><path d="M 32.128906 -33.679688 C 32.128906 -34.480469 31.832031 -34.976562 31.03125 -34.976562 L 2.097656 -34.976562 C 1.300781 -34.976562 1 -34.480469 1 -33.679688 L 1 -24.285156 C 1 -23.734375 1.148438 -23.386719 1.699219 -23.386719 L 2 -23.386719 C 2.449219 -23.386719 2.949219 -24.035156 3.398438 -24.683594 L 10.691406 -34.277344 L 12.292969 -34.277344 L 12.292969 -1.300781 C 12.292969 -0.5 12.59375 0 13.390625 0 L 19.738281 0 C 20.539062 0 20.835938 -0.5 20.835938 -1.300781 L 20.835938 -34.277344 L 22.4375 -34.277344 L 29.730469 -24.683594 C 30.230469 -24.035156 30.679688 -23.386719 31.128906 -23.386719 L 31.429688 -23.386719 C 31.980469 -23.386719 32.128906 -23.734375 32.128906 -24.285156 Z M 32.128906 -33.679688 "/></g></g></g><g fill="#000000" fill-opacity="1"><g transform="translate(180.228165, 173.032411)"><g><path d="M 9.246094 0 C 10.292969 0 10.644531 -0.550781 10.34375 -1.300781 L 6.644531 -9.542969 L 22.535156 -9.542969 L 26.234375 -1.300781 C 26.582031 -0.550781 27.132812 0 28.03125 0 L 35.328125 0 C 36.128906 0 36.378906 -0.648438 36.128906 -1.300781 L 21.636719 -33.679688 C 21.335938 -34.378906 20.6875 -34.976562 19.835938 -34.976562 L 16.789062 -34.976562 C 16.089844 -34.976562 15.390625 -34.378906 15.089844 -33.679688 L 0.601562 -1.300781 C 0.351562 -0.648438 0.601562 0 1.398438 0 Z M 22.234375 -10.242188 L 6.347656 -10.242188 L 5.847656 -11.34375 L 13.792969 -29.183594 Z M 22.234375 -10.242188 "/></g></g></g><g fill="#000000" fill-opacity="1"><g transform="translate(216.95539, 173.032411)"><g><path d="M 32.128906 -33.679688 C 32.128906 -34.480469 31.832031 -34.976562 31.03125 -34.976562 L 2.097656 -34.976562 C 1.300781 -34.976562 1 -34.480469 1 -33.679688 L 1 -24.285156 C 1 -23.734375 1.148438 -23.386719 1.699219 -23.386719 L 2 -23.386719 C 2.449219 -23.386719 2.949219 -24.035156 3.398438 -24.683594 L 10.691406 -34.277344 L 12.292969 -34.277344 L 12.292969 -1.300781 C 12.292969 -0.5 12.59375 0 13.390625 0 L 19.738281 0 C 20.539062 0 20.835938 -0.5 20.835938 -1.300781 L 20.835938 -34.277344 L 22.4375 -34.277344 L 29.730469 -24.683594 C 30.230469 -24.035156 30.679688 -23.386719 31.128906 -23.386719 L 31.429688 -23.386719 C 31.980469 -23.386719 32.128906 -23.734375 32.128906 -24.285156 Z M 32.128906 -33.679688 "/></g></g></g><g fill="#000000" fill-opacity="1"><g transform="translate(250.084849, 173.032411)"><g><path d="M 4.496094 -1.300781 C 4.496094 -0.5 4.796875 0 5.597656 0 L 11.941406 0 C 12.742188 0 13.042969 -0.5 13.042969 -1.300781 L 13.042969 -33.679688 C 13.042969 -34.480469 12.742188 -34.976562 11.941406 -34.976562 L 5.597656 -34.976562 C 4.796875 -34.976562 4.496094 -34.480469 4.496094 -33.679688 Z M 4.496094 -1.300781 "/></g></g></g><g fill="#000000" fill-opacity="1"><g transform="translate(267.623973, 173.032411)"><g><path d="M 2 -17.539062 C 2 -5.398438 8.59375 0.5 20.738281 0.5 L 32.378906 0 C 33.28125 -0.101562 33.480469 -0.5 33.480469 -1.300781 L 33.480469 -7.796875 C 33.480469 -8.496094 33.28125 -8.792969 32.78125 -8.996094 L 32.179688 -9.246094 C 31.980469 -9.292969 31.832031 -9.34375 31.628906 -9.34375 C 31.230469 -9.34375 30.878906 -9.195312 30.53125 -8.84375 L 21.4375 -0.199219 C 15.941406 -0.199219 11.492188 -9.742188 11.492188 -17.539062 C 11.492188 -25.335938 15.941406 -34.878906 21.4375 -34.878906 L 30.53125 -26.234375 C 30.878906 -25.882812 31.230469 -25.734375 31.628906 -25.734375 C 31.832031 -25.734375 31.980469 -25.785156 32.179688 -25.832031 L 32.78125 -26.082031 C 33.28125 -26.285156 33.480469 -26.582031 33.480469 -27.28125 L 33.480469 -33.777344 C 33.480469 -34.578125 33.28125 -34.976562 32.378906 -35.078125 L 20.738281 -35.578125 C 8.59375 -35.578125 2 -29.679688 2 -17.539062 Z M 2 -17.539062 "/></g></g></g><g fill="#000000" fill-opacity="1"><g transform="translate(85.731414, 222.532821)"><g><path d="M 107.734375 24.484375 C 107.859375 24.585938 107.9375 24.703125 107.96875 24.828125 C 108 24.953125 107.945312 25.066406 107.8125 25.171875 C 101.957031 29.234375 95.90625 32.382812 89.65625 34.625 C 83.40625 36.875 77.039062 38 70.5625 38 C 64.09375 38 57.585938 36.613281 51.046875 33.84375 C 42.210938 30.007812 34.753906 24.429688 28.671875 17.109375 C 28.566406 16.972656 28.488281 16.851562 28.4375 16.75 C 28.332031 16.664062 28.234375 16.554688 28.140625 16.421875 C 27.878906 16.097656 27.648438 15.847656 27.453125 15.671875 C 27.265625 15.492188 27.085938 15.390625 26.921875 15.359375 C 26.628906 15.421875 26.15625 15.597656 25.5 15.890625 C 23.570312 16.796875 21.460938 17.539062 19.171875 18.125 C 16.878906 18.71875 14.585938 19.003906 12.296875 18.984375 C 10.003906 18.960938 7.890625 18.488281 5.953125 17.5625 C 4.015625 16.632812 2.40625 15.101562 1.125 12.96875 C 0.125 11.175781 -0.601562 9.300781 -1.0625 7.34375 C -1.519531 5.394531 -1.765625 3.390625 -1.796875 1.328125 C -1.929688 -4.453125 -1.035156 -10.132812 0.890625 -15.71875 C 0.960938 -15.9375 1.039062 -16.15625 1.125 -16.375 C 1.257812 -16.707031 1.378906 -17.019531 1.484375 -17.3125 C 1.648438 -17.832031 1.503906 -18.238281 1.046875 -18.53125 C 0.910156 -18.601562 0.773438 -18.6875 0.640625 -18.78125 C 0.222656 -19.007812 -0.195312 -19.265625 -0.625 -19.546875 C -4.988281 -22.523438 -7.007812 -26.695312 -6.6875 -32.0625 C -6.414062 -35.601562 -5.1875 -39.148438 -3 -42.703125 C -0.820312 -46.253906 2.03125 -49.625 5.5625 -52.8125 C 9.09375 -56 13.015625 -58.835938 17.328125 -61.328125 C 21.640625 -63.828125 26.066406 -65.789062 30.609375 -67.21875 C 35.148438 -68.644531 39.515625 -69.382812 43.703125 -69.4375 C 47.898438 -69.488281 51.648438 -68.664062 54.953125 -66.96875 C 58.265625 -65.269531 60.832031 -62.550781 62.65625 -58.8125 C 64.445312 -54.84375 65.3125 -50.648438 65.25 -46.234375 C 65.21875 -45.640625 65.203125 -45.046875 65.203125 -44.453125 C 65.160156 -44.203125 65.140625 -43.941406 65.140625 -43.671875 C 65.023438 -39.640625 64.46875 -35.703125 63.46875 -31.859375 C 62.46875 -28.015625 61.140625 -24.238281 59.484375 -20.53125 C 56.390625 -13.632812 52.488281 -7.40625 47.78125 -1.84375 C 43.070312 3.71875 37.546875 8.570312 31.203125 12.71875 C 31.117188 12.78125 31.035156 12.820312 30.953125 12.84375 C 30.703125 13.007812 30.460938 13.175781 30.234375 13.34375 C 29.816406 13.738281 29.785156 14.144531 30.140625 14.5625 C 30.203125 14.664062 30.253906 14.742188 30.296875 14.796875 C 30.359375 14.878906 30.414062 14.945312 30.46875 15 C 35.644531 21.445312 41.53125 26.484375 48.125 30.109375 C 54.71875 33.734375 61.75 35.769531 69.21875 36.21875 C 76.695312 36.664062 84.367188 35.304688 92.234375 32.140625 C 96.210938 30.453125 99.957031 28.335938 103.46875 25.796875 C 104.25 25.273438 105.0625 24.785156 105.90625 24.328125 C 106.175781 24.203125 106.457031 24.140625 106.75 24.140625 C 107.070312 24.140625 107.398438 24.253906 107.734375 24.484375 Z M 28.46875 11.984375 C 28.632812 11.984375 28.8125 11.914062 29 11.78125 C 29.300781 11.59375 29.613281 11.398438 29.9375 11.203125 C 30.914062 10.554688 31.878906 9.882812 32.828125 9.1875 C 44.117188 0.664062 52.429688 -10.117188 57.765625 -23.171875 C 59.140625 -26.421875 60.222656 -29.800781 61.015625 -33.3125 C 61.804688 -36.832031 62.320312 -40.628906 62.5625 -44.703125 C 62.625 -46.160156 62.476562 -48.148438 62.125 -50.671875 C 61.695312 -53.890625 60.703125 -56.882812 59.140625 -59.65625 C 57.328125 -62.707031 54.894531 -64.859375 51.84375 -66.109375 C 48.789062 -67.367188 45.382812 -67.867188 41.625 -67.609375 C 37.875 -67.347656 33.972656 -66.5 29.921875 -65.0625 C 25.867188 -63.632812 21.925781 -61.753906 18.09375 -59.421875 C 14.269531 -57.085938 10.78125 -54.46875 7.625 -51.5625 C 4.46875 -48.65625 1.890625 -45.597656 -0.109375 -42.390625 C -2.109375 -39.179688 -3.304688 -36 -3.703125 -32.84375 C -4.285156 -27.664062 -2.472656 -23.628906 1.734375 -20.734375 C 2.015625 -20.503906 2.257812 -20.378906 2.46875 -20.359375 C 2.6875 -20.410156 2.90625 -20.628906 3.125 -21.015625 C 3.394531 -21.410156 3.640625 -21.789062 3.859375 -22.15625 C 4.234375 -22.769531 4.613281 -23.351562 5 -23.90625 C 5.320312 -24.414062 5.804688 -24.695312 6.453125 -24.75 C 6.484375 -24.75 6.515625 -24.75 6.546875 -24.75 L 6.65625 -24.75 C 6.875 -24.75 7.070312 -24.65625 7.25 -24.46875 C 7.4375 -24.28125 7.484375 -24.078125 7.390625 -23.859375 C 7.117188 -23.335938 6.835938 -22.820312 6.546875 -22.3125 C 6.160156 -21.65625 5.804688 -21.003906 5.484375 -20.359375 C 4.960938 -19.429688 5.175781 -18.859375 6.125 -18.640625 C 9.082031 -17.722656 11.96875 -17.539062 14.78125 -18.09375 C 17.59375 -18.65625 20.160156 -19.796875 22.484375 -21.515625 C 24.816406 -23.242188 26.707031 -25.394531 28.15625 -27.96875 C 29.613281 -30.539062 30.4375 -33.398438 30.625 -36.546875 C 30.820312 -39.503906 30.347656 -42.335938 29.203125 -45.046875 C 29.148438 -45.179688 29.128906 -45.316406 29.140625 -45.453125 C 29.148438 -45.597656 29.1875 -45.722656 29.25 -45.828125 C 29.488281 -46.097656 29.769531 -46.207031 30.09375 -46.15625 C 30.226562 -46.207031 30.351562 -46.207031 30.46875 -46.15625 C 31.0625 -46 31.457031 -45.628906 31.65625 -45.046875 C 32.332031 -43.390625 32.75 -41.679688 32.90625 -39.921875 C 33.34375 -36.367188 32.910156 -32.988281 31.609375 -29.78125 C 30.304688 -26.582031 28.359375 -23.832031 25.765625 -21.53125 C 23.179688 -19.238281 20.132812 -17.671875 16.625 -16.828125 C 12.882812 -15.984375 9.171875 -16 5.484375 -16.875 C 5.097656 -16.96875 4.769531 -17.015625 4.5 -17.015625 C 4.28125 -17.015625 4.097656 -16.921875 3.953125 -16.734375 C 3.804688 -16.546875 3.664062 -16.25 3.53125 -15.84375 C 2.550781 -12.988281 1.816406 -10.097656 1.328125 -7.171875 C 0.835938 -4.242188 0.660156 -1.273438 0.796875 1.734375 C 0.890625 4.984375 1.585938 8.078125 2.890625 11.015625 C 3.960938 13.378906 5.359375 15.066406 7.078125 16.078125 C 8.804688 17.085938 10.695312 17.597656 12.75 17.609375 C 14.800781 17.628906 16.882812 17.300781 19 16.625 C 21.113281 15.945312 23.132812 15.082031 25.0625 14.03125 C 25.550781 13.78125 25.644531 13.382812 25.34375 12.84375 C 24.988281 12.332031 24.648438 11.832031 24.328125 11.34375 C 23.515625 10.144531 22.710938 8.9375 21.921875 7.71875 C 20.503906 5.445312 19.320312 3.046875 18.375 0.515625 C 18.132812 -0.109375 17.929688 -0.738281 17.765625 -1.375 C 17.609375 -2.007812 17.53125 -2.664062 17.53125 -3.34375 C 17.570312 -3.8125 17.65625 -4.273438 17.78125 -4.734375 C 17.882812 -5.015625 18.0625 -5.226562 18.3125 -5.375 C 18.570312 -5.519531 18.867188 -5.59375 19.203125 -5.59375 C 19.328125 -5.59375 19.472656 -5.578125 19.640625 -5.546875 C 19.910156 -5.484375 20.070312 -5.34375 20.125 -5.125 C 20.1875 -4.914062 20.203125 -4.703125 20.171875 -4.484375 C 20.140625 -3.109375 20.382812 -1.820312 20.90625 -0.625 C 21.71875 1.59375 22.71875 3.703125 23.90625 5.703125 C 25.101562 7.703125 26.382812 9.632812 27.75 11.5 C 27.976562 11.789062 28.21875 11.953125 28.46875 11.984375 Z M 28.46875 11.984375 "/></g></g><g transform="translate(146.337884, 222.532821)"><g><path d="M 0.5625 -3.921875 C -0.84375 -3.921875 -1.546875 -4.65625 -1.546875 -6.125 C -1.546875 -7.914062 -0.382812 -11.078125 1.9375 -15.609375 C 2.019531 -15.796875 2.179688 -15.890625 2.421875 -15.890625 C 3.347656 -15.890625 3.8125 -15.519531 3.8125 -14.78125 C 3.8125 -14.507812 3.734375 -14.179688 3.578125 -13.796875 C 3.515625 -13.703125 2.738281 -11.753906 1.25 -7.953125 C 1.007812 -7.328125 0.890625 -6.863281 0.890625 -6.5625 C 0.890625 -6.238281 1.035156 -6.078125 1.328125 -6.078125 C 2.410156 -6.078125 5.242188 -8.765625 9.828125 -14.140625 C 10.421875 -14.859375 11.003906 -15.21875 11.578125 -15.21875 C 12.421875 -15.21875 12.84375 -14.910156 12.84375 -14.296875 C 12.84375 -14.054688 12.585938 -13.160156 12.078125 -11.609375 C 11.367188 -9.492188 11.015625 -8.273438 11.015625 -7.953125 C 11.015625 -7.460938 11.175781 -7.21875 11.5 -7.21875 C 12.3125 -7.21875 14.6875 -8.664062 18.625 -11.5625 C 18.84375 -11.75 19.035156 -11.84375 19.203125 -11.84375 C 19.566406 -11.84375 19.75 -11.535156 19.75 -10.921875 C 19.75 -10.753906 19.695312 -10.617188 19.59375 -10.515625 C 17.507812 -8.722656 15.734375 -7.363281 14.265625 -6.4375 C 12.929688 -5.582031 11.75 -5.15625 10.71875 -5.15625 L 10.40625 -5.15625 C 8.882812 -5.476562 8.125 -6.664062 8.125 -8.71875 C 6.5 -7.28125 5.148438 -6.117188 4.078125 -5.234375 C 3.003906 -4.359375 1.832031 -3.921875 0.5625 -3.921875 Z M 0.5625 -3.921875 "/></g></g><g transform="translate(164.579744, 222.532821)"><g><path d="M 8.828125 -9.359375 C 8.035156 -8.421875 7.097656 -7.554688 6.015625 -6.765625 C 4.929688 -5.984375 3.707031 -5.453125 2.34375 -5.171875 C 0.988281 -4.898438 -0.0625 -5 -0.8125 -5.46875 C -1.570312 -5.945312 -1.722656 -7.003906 -1.265625 -8.640625 C -0.671875 -10.316406 0.140625 -11.921875 1.171875 -13.453125 C 1.410156 -13.773438 1.753906 -14.003906 2.203125 -14.140625 C 2.523438 -14.210938 2.804688 -14.15625 3.046875 -13.96875 C 3.296875 -13.78125 3.390625 -13.546875 3.328125 -13.265625 C 3.109375 -12.734375 2.863281 -12.203125 2.59375 -11.671875 C 2.332031 -11.140625 2.15625 -10.789062 2.0625 -10.625 C 1.539062 -9.675781 1.175781 -8.6875 0.96875 -7.65625 C 0.96875 -7.0625 1.757812 -7.023438 3.34375 -7.546875 C 4.925781 -8.066406 6.460938 -9.015625 7.953125 -10.390625 C 9.453125 -11.773438 10.171875 -12.179688 10.109375 -11.609375 C 10.046875 -11.046875 9.617188 -10.296875 8.828125 -9.359375 Z M 4.953125 -16.78125 C 4.878906 -16.71875 4.726562 -16.644531 4.5 -16.5625 C 4.269531 -16.488281 4.023438 -16.429688 3.765625 -16.390625 C 3.503906 -16.347656 3.296875 -16.382812 3.140625 -16.5 C 2.992188 -16.625 2.988281 -16.863281 3.125 -17.21875 C 3.363281 -17.84375 3.613281 -18.382812 3.875 -18.84375 C 4.132812 -19.3125 4.46875 -19.828125 4.875 -20.390625 C 5.144531 -20.648438 5.4375 -20.789062 5.75 -20.8125 C 6.0625 -20.832031 6.316406 -20.75 6.515625 -20.5625 C 6.722656 -20.375 6.785156 -20.117188 6.703125 -19.796875 C 6.378906 -18.628906 5.796875 -17.625 4.953125 -16.78125 Z M 4.953125 -16.78125 "/></g></g><g transform="translate(173.234641, 222.532821)"><g><path d="M 10.734375 -10.59375 C 11.222656 -11.070312 11.628906 -11.34375 11.953125 -11.40625 C 12.285156 -11.46875 12.5 -11.414062 12.59375 -11.25 C 12.6875 -11.09375 12.625 -10.875 12.40625 -10.59375 C 11.101562 -9.019531 9.644531 -7.660156 8.03125 -6.515625 C 6.414062 -5.378906 4.753906 -4.722656 3.046875 -4.546875 C 1.335938 -4.367188 0.304688 -5.300781 -0.046875 -7.34375 C -0.304688 -9.375 0.921875 -13.503906 3.640625 -19.734375 C 6.359375 -25.960938 8.507812 -31.066406 10.09375 -35.046875 C 10.226562 -35.398438 10.429688 -35.707031 10.703125 -35.96875 C 11.054688 -36.332031 11.476562 -36.414062 11.96875 -36.21875 C 12.125 -36.144531 12.28125 -36.023438 12.4375 -35.859375 C 12.601562 -35.703125 12.660156 -35.414062 12.609375 -35 C 5.609375 -18.394531 2.21875 -9.367188 2.4375 -7.921875 C 2.664062 -6.472656 3.601562 -6.113281 5.25 -6.84375 C 6.894531 -7.582031 8.164062 -8.332031 9.0625 -9.09375 C 9.957031 -9.851562 10.515625 -10.351562 10.734375 -10.59375 Z M 10.734375 -10.59375 "/></g></g><g transform="translate(184.30847, 222.532821)"><g><path d="M 10.734375 -10.59375 C 11.222656 -11.070312 11.628906 -11.34375 11.953125 -11.40625 C 12.285156 -11.46875 12.5 -11.414062 12.59375 -11.25 C 12.6875 -11.09375 12.625 -10.875 12.40625 -10.59375 C 11.101562 -9.019531 9.644531 -7.660156 8.03125 -6.515625 C 6.414062 -5.378906 4.753906 -4.722656 3.046875 -4.546875 C 1.335938 -4.367188 0.304688 -5.300781 -0.046875 -7.34375 C -0.304688 -9.375 0.921875 -13.503906 3.640625 -19.734375 C 6.359375 -25.960938 8.507812 -31.066406 10.09375 -35.046875 C 10.226562 -35.398438 10.429688 -35.707031 10.703125 -35.96875 C 11.054688 -36.332031 11.476562 -36.414062 11.96875 -36.21875 C 12.125 -36.144531 12.28125 -36.023438 12.4375 -35.859375 C 12.601562 -35.703125 12.660156 -35.414062 12.609375 -35 C 5.609375 -18.394531 2.21875 -9.367188 2.4375 -7.921875 C 2.664062 -6.472656 3.601562 -6.113281 5.25 -6.84375 C 6.894531 -7.582031 8.164062 -8.332031 9.0625 -9.09375 C 9.957031 -9.851562 10.515625 -10.351562 10.734375 -10.59375 Z M 10.734375 -10.59375 "/></g></g></g></svg>